<?xml version="1.0" encoding="utf-8"?>
<!-- Generator: Adobe Illustrator 16.0.0, SVG Export Plug-In . SVG Version: 6.00 Build 0)  -->
<!DOCTYPE svg PUBLIC "-//W3C//DTD SVG 1.1//EN" "http://www.w3.org/Graphics/SVG/1.1/DTD/svg11.dtd">
<svg version="1.1" id="Layer_1" xmlns="http://www.w3.org/2000/svg" xmlns:xlink="http://www.w3.org/1999/xlink" x="0px" y="0px"
	 width="29.25px" height="29.25px" viewBox="0 0 29.25 29.25" enable-background="new 0 0 29.25 29.25" xml:space="preserve">
<g>
	<path d="M28.488,24.604c0.507,0.56,0.762,1.219,0.762,1.98s-0.255,1.397-0.762,1.904c-0.508,0.508-1.143,0.762-1.904,0.762
		s-1.422-0.253-1.98-0.762l-9.979-9.979l-9.979,9.979c-0.56,0.508-1.194,0.762-1.904,0.762c-0.712,0-1.346-0.253-1.904-0.762
		C0.278,27.981,0,27.346,0,26.584s0.278-1.421,0.838-1.98l9.902-9.979L0.838,4.646C0.278,4.088,0,3.428,0,2.666
		S0.278,1.27,0.838,0.762C1.396,0.255,2.03,0,2.742,0c0.71,0,1.345,0.255,1.904,0.762l9.979,9.979l9.979-9.979
		C25.162,0.255,25.822,0,26.584,0s1.396,0.255,1.904,0.762c0.507,0.508,0.762,1.143,0.762,1.904s-0.255,1.422-0.762,1.98
		l-9.979,9.979L28.488,24.604z"/>
</g>
</svg>
